<svg xmlns="http://www.w3.org/2000/svg" width="653" height="722" viewBox="0 0 653 722" fill="none">
<g fill="#111111" fill-rule="evenodd">
  <path d="M 159 277 L 161 278 L 165 278 L 174 281 L 176 282 L 179 284 L 187 292 L 190 298 L 191 301 L 192 305 L 192 547 L 191 552 L 190 555 L 189 558 L 188 560 L 185 564 L 181 568 L 178 570 L 172 573 L 169 574 L 162 575 L 161 576 L 159 576 L 159 579 L 318 580 L 318 685 L 317 690 L 316 693 L 315 695 L 314 697 L 312 700 L 308 704 L 305 706 L 303 707 L 298 709 L 295 709 L 291 711 L 291 713 L 394 713 L 393 710 L 390 709 L 387 709 L 384 708 L 378 705 L 374 702 L 373 701 L 370 697 L 369 695 L 368 693 L 367 690 L 366 684 L 367 579 L 433 579 L 441 578 L 448 577 L 453 576 L 458 575 L 465 573 L 477 569 L 482 567 L 496 560 L 505 554 L 510 550 L 520 540 L 524 535 L 526 532 L 529 527 L 532 521 L 534 516 L 535 513 L 536 510 L 537 506 L 538 502 L 539 495 L 539 477 L 538 470 L 537 466 L 536 462 L 535 459 L 534 456 L 528 444 L 526 441 L 524 438 L 520 433 L 513 426 L 508 422 L 505 420 L 502 418 L 497 415 L 491 412 L 486 410 L 481 408 L 478 408 L 476 407 L 475 397 L 474 389 L 473 384 L 472 379 L 471 375 L 469 368 L 468 365 L 467 362 L 465 357 L 458 343 L 450 331 L 446 326 L 431 311 L 426 307 L 422 304 L 419 302 L 416 300 L 411 297 L 402 292 L 395 289 L 388 286 L 376 282 L 369 280 L 365 279 L 360 278 L 355 277 L 349 276 L 342 275 L 331 274 Z M 368 411 L 426 411 L 433 412 L 438 413 L 442 414 L 446 415 L 449 416 L 452 417 L 457 419 L 459 420 L 468 426 L 479 437 L 481 440 L 483 443 L 485 447 L 488 453 L 489 456 L 490 459 L 491 463 L 492 468 L 493 476 L 493 497 L 492 505 L 490 514 L 489 517 L 488 520 L 486 525 L 483 531 L 480 536 L 477 540 L 465 552 L 461 555 L 458 557 L 446 563 L 437 566 L 433 567 L 427 568 L 420 569 L 370 569 L 368 570 L 366 568 L 366 413 Z M 248 285 L 302 285 L 314 286 L 323 287 L 329 288 L 334 289 L 346 292 L 358 296 L 363 298 L 377 305 L 386 311 L 390 314 L 407 331 L 410 335 L 413 339 L 416 344 L 423 358 L 425 363 L 426 366 L 427 369 L 429 376 L 430 381 L 431 386 L 432 394 L 431 400 L 291 400 L 291 403 L 294 403 L 298 404 L 301 405 L 303 406 L 305 407 L 308 409 L 314 415 L 315 417 L 316 419 L 317 422 L 318 427 L 317 569 L 253 569 L 250 568 L 248 567 L 244 563 L 243 561 L 242 558 L 241 496 L 241 493 L 242 483 L 242 463 L 242 458 L 241 327 L 242 289 L 245 286 Z "/>
  <path d="M 317 8 L 310 9 L 305 10 L 301 11 L 298 12 L 295 13 L 283 19 L 278 22 L 273 26 L 262 37 L 259 41 L 257 44 L 254 49 L 253 51 L 252 53 L 250 58 L 249 61 L 248 64 L 248 70 L 249 72 L 253 76 L 255 77 L 262 77 L 266 75 L 268 73 L 269 71 L 270 69 L 270 66 L 272 61 L 273 59 L 276 54 L 279 50 L 287 42 L 296 36 L 298 35 L 300 34 L 309 31 L 313 30 L 323 29 L 325 29 L 334 30 L 338 31 L 342 32 L 347 34 L 349 35 L 351 36 L 354 38 L 357 40 L 363 45 L 364 46 L 369 52 L 371 55 L 373 58 L 376 64 L 377 67 L 378 70 L 379 74 L 380 81 L 380 92 L 379 98 L 378 102 L 377 105 L 375 110 L 374 112 L 373 114 L 371 117 L 369 120 L 366 124 L 360 130 L 355 134 L 350 137 L 344 140 L 340 141 L 338 142 L 336 143 L 333 145 L 330 147 L 324 153 L 321 157 L 318 163 L 317 166 L 316 170 L 315 200 L 301 200 L 288 201 L 279 202 L 271 203 L 265 204 L 259 205 L 244 208 L 236 210 L 224 213 L 217 215 L 205 219 L 181 227 L 167 232 L 143 241 L 125 248 L 90 262 L 78 267 L 57 276 L 45 282 L 40 285 L 37 287 L 33 290 L 28 294 L 24 298 L 20 303 L 18 306 L 16 309 L 14 313 L 11 319 L 10 322 L 9 325 L 8 329 L 8 351 L 9 355 L 10 359 L 11 362 L 12 364 L 15 367 L 17 368 L 24 368 L 26 367 L 29 364 L 30 362 L 30 357 L 27 350 L 26 344 L 26 337 L 27 331 L 28 327 L 30 322 L 33 317 L 35 314 L 43 306 L 47 303 L 50 301 L 53 299 L 65 293 L 86 284 L 101 278 L 141 262 L 154 257 L 162 254 L 170 251 L 184 246 L 198 241 L 219 234 L 226 232 L 233 230 L 245 227 L 265 223 L 273 222 L 281 221 L 290 220 L 303 219 L 351 219 L 364 220 L 373 221 L 380 222 L 387 223 L 393 224 L 398 225 L 411 228 L 415 229 L 422 231 L 429 233 L 439 236 L 448 239 L 463 244 L 477 249 L 488 253 L 509 261 L 532 270 L 537 272 L 542 274 L 564 283 L 585 292 L 599 299 L 602 301 L 605 303 L 610 307 L 615 312 L 618 316 L 621 321 L 622 323 L 623 326 L 624 329 L 625 333 L 625 348 L 622 356 L 622 363 L 624 366 L 627 368 L 635 368 L 637 367 L 639 365 L 640 363 L 641 361 L 643 354 L 644 348 L 644 333 L 643 327 L 642 323 L 641 320 L 639 315 L 638 313 L 637 311 L 635 308 L 633 305 L 630 301 L 620 291 L 616 288 L 613 286 L 610 284 L 605 281 L 601 279 L 595 276 L 586 272 L 579 269 L 572 266 L 560 261 L 545 255 L 520 245 L 491 234 L 477 229 L 441 217 L 431 214 L 424 212 L 408 208 L 388 204 L 381 203 L 373 202 L 364 201 L 351 200 L 337 199 L 337 176 L 338 172 L 339 170 L 340 168 L 344 164 L 347 162 L 349 161 L 351 160 L 355 159 L 359 157 L 364 154 L 367 152 L 370 150 L 374 147 L 383 138 L 387 133 L 389 130 L 391 127 L 397 115 L 398 112 L 399 109 L 400 105 L 401 101 L 402 94 L 402 79 L 401 71 L 400 67 L 396 55 L 393 49 L 390 44 L 388 41 L 385 37 L 373 25 L 369 22 L 366 20 L 352 13 L 343 10 L 338 9 L 330 8 Z "/>
</g>
</svg>